<mxfile host="app.diagrams.net" modified="2022-08-12T01:50:13.161Z" agent="5.0 (Windows NT 10.0; Win64; x64) AppleWebKit/537.36 (KHTML, like Gecko) Chrome/104.0.0.0 Safari/537.36" etag="S-z9M4vzuFqPC0zytpbH" version="20.2.3" type="github">
  <diagram id="H5zbHT6_dlPMBUSok4gz" name="第 1 页">
    <mxGraphModel dx="970" dy="497" grid="1" gridSize="10" guides="1" tooltips="1" connect="1" arrows="1" fold="1" page="1" pageScale="1" pageWidth="827" pageHeight="1169" math="0" shadow="0">
      <root>
        <mxCell id="0" />
        <mxCell id="1" parent="0" />
        <mxCell id="vefPi8kiDC_iZ1Ip9O_G-5" style="sketch=1;hachureGap=4;orthogonalLoop=1;jettySize=auto;html=1;exitX=0.5;exitY=1;exitDx=0;exitDy=0;entryX=0;entryY=0.5;entryDx=0;entryDy=0;fontFamily=Architects Daughter;fontSource=https%3A%2F%2Ffonts.googleapis.com%2Fcss%3Ffamily%3DArchitects%2BDaughter;fontSize=16;endArrow=classicThin;startSize=14;endSize=14;sourcePerimeterSpacing=8;targetPerimeterSpacing=8;edgeStyle=orthogonalEdgeStyle;curved=1;startArrow=none;startFill=0;endFill=0;" parent="1" source="vefPi8kiDC_iZ1Ip9O_G-2" target="vefPi8kiDC_iZ1Ip9O_G-4" edge="1">
          <mxGeometry relative="1" as="geometry" />
        </mxCell>
        <mxCell id="69dpRHGbD6YFCud_h_4v-3" value="扫码访问" style="edgeLabel;html=1;align=center;verticalAlign=middle;resizable=0;points=[];fontFamily=Architects Daughter;fontSource=https%3A%2F%2Ffonts.googleapis.com%2Fcss%3Ffamily%3DArchitects%2BDaughter;fontSize=16;" parent="vefPi8kiDC_iZ1Ip9O_G-5" vertex="1" connectable="0">
          <mxGeometry x="0.0056" y="-3" relative="1" as="geometry">
            <mxPoint x="19" y="-33" as="offset" />
          </mxGeometry>
        </mxCell>
        <mxCell id="vefPi8kiDC_iZ1Ip9O_G-2" value="eMiner" style="rounded=1;whiteSpace=wrap;html=1;sketch=1;hachureGap=4;fontFamily=Architects Daughter;fontSource=https%3A%2F%2Ffonts.googleapis.com%2Fcss%3Ffamily%3DArchitects%2BDaughter;fontSize=20;" parent="1" vertex="1">
          <mxGeometry x="80" y="280" width="120" height="60" as="geometry" />
        </mxCell>
        <mxCell id="vefPi8kiDC_iZ1Ip9O_G-3" value="subject-api" style="rounded=1;whiteSpace=wrap;html=1;sketch=1;hachureGap=4;fontFamily=Architects Daughter;fontSource=https%3A%2F%2Ffonts.googleapis.com%2Fcss%3Ffamily%3DArchitects%2BDaughter;fontSize=20;" parent="1" vertex="1">
          <mxGeometry x="480" y="280" width="120" height="60" as="geometry" />
        </mxCell>
        <mxCell id="69dpRHGbD6YFCud_h_4v-4" style="edgeStyle=orthogonalEdgeStyle;rounded=1;orthogonalLoop=1;jettySize=auto;html=1;exitX=1;exitY=0.5;exitDx=0;exitDy=0;curved=1;endArrow=classicThin;fontSize=16;fontFamily=Architects Daughter;sketch=1;hachureGap=4;fontSource=https%3A%2F%2Ffonts.googleapis.com%2Fcss%3Ffamily%3DArchitects%2BDaughter;startSize=14;endSize=14;sourcePerimeterSpacing=8;targetPerimeterSpacing=8;startArrow=none;startFill=0;endFill=0;entryX=0.75;entryY=1;entryDx=0;entryDy=0;" parent="1" source="vefPi8kiDC_iZ1Ip9O_G-4" target="vefPi8kiDC_iZ1Ip9O_G-3" edge="1">
          <mxGeometry relative="1" as="geometry">
            <mxPoint x="610" y="300" as="targetPoint" />
          </mxGeometry>
        </mxCell>
        <mxCell id="69dpRHGbD6YFCud_h_4v-5" value="發送用户信息" style="edgeLabel;html=1;align=center;verticalAlign=middle;resizable=0;points=[];fontSize=16;fontFamily=Architects Daughter;fontColor=default;" parent="69dpRHGbD6YFCud_h_4v-4" vertex="1" connectable="0">
          <mxGeometry x="-0.0105" y="16" relative="1" as="geometry">
            <mxPoint x="37" y="-24" as="offset" />
          </mxGeometry>
        </mxCell>
        <mxCell id="69dpRHGbD6YFCud_h_4v-14" style="edgeStyle=orthogonalEdgeStyle;shape=connector;curved=1;rounded=1;sketch=1;hachureGap=4;orthogonalLoop=1;jettySize=auto;html=1;exitX=0.5;exitY=0;exitDx=0;exitDy=0;labelBackgroundColor=default;fontFamily=Architects Daughter;fontSource=https%3A%2F%2Ffonts.googleapis.com%2Fcss%3Ffamily%3DArchitects%2BDaughter;fontSize=16;fontColor=default;startArrow=none;startFill=0;endArrow=classicThin;endFill=0;startSize=14;endSize=14;sourcePerimeterSpacing=8;targetPerimeterSpacing=8;strokeColor=default;entryX=0.5;entryY=1;entryDx=0;entryDy=0;" parent="1" source="vefPi8kiDC_iZ1Ip9O_G-4" target="69dpRHGbD6YFCud_h_4v-15" edge="1">
          <mxGeometry relative="1" as="geometry">
            <mxPoint x="360" y="370" as="targetPoint" />
          </mxGeometry>
        </mxCell>
        <mxCell id="69dpRHGbD6YFCud_h_4v-17" value="更新状态 redirect" style="edgeLabel;html=1;align=center;verticalAlign=middle;resizable=0;points=[];fontSize=16;fontFamily=Architects Daughter;fontColor=default;" parent="69dpRHGbD6YFCud_h_4v-14" vertex="1" connectable="0">
          <mxGeometry x="-0.2286" y="3" relative="1" as="geometry">
            <mxPoint as="offset" />
          </mxGeometry>
        </mxCell>
        <mxCell id="vefPi8kiDC_iZ1Ip9O_G-4" value="微数API" style="rounded=1;whiteSpace=wrap;html=1;sketch=1;hachureGap=4;fontFamily=Architects Daughter;fontSource=https%3A%2F%2Ffonts.googleapis.com%2Fcss%3Ffamily%3DArchitects%2BDaughter;fontSize=20;" parent="1" vertex="1">
          <mxGeometry x="280" y="430" width="120" height="60" as="geometry" />
        </mxCell>
        <mxCell id="69dpRHGbD6YFCud_h_4v-9" value="更新成功&lt;br&gt;发送socket信息" style="edgeStyle=orthogonalEdgeStyle;shape=connector;curved=1;rounded=1;sketch=1;hachureGap=4;orthogonalLoop=1;jettySize=auto;html=1;labelBackgroundColor=default;fontFamily=Architects Daughter;fontSource=https%3A%2F%2Ffonts.googleapis.com%2Fcss%3Ffamily%3DArchitects%2BDaughter;fontSize=16;fontColor=default;startArrow=none;startFill=0;endArrow=classicThin;endFill=0;startSize=14;endSize=14;sourcePerimeterSpacing=8;targetPerimeterSpacing=8;strokeColor=default;entryX=1;entryY=0.5;entryDx=0;entryDy=0;exitX=0.5;exitY=0;exitDx=0;exitDy=0;" parent="1" source="vefPi8kiDC_iZ1Ip9O_G-3" target="kcnezQiw22nbMT_aAyGr-4" edge="1">
          <mxGeometry x="-0.3332" y="20" relative="1" as="geometry">
            <mxPoint x="620" y="200" as="sourcePoint" />
            <mxPoint x="310" y="240" as="targetPoint" />
            <mxPoint as="offset" />
          </mxGeometry>
        </mxCell>
        <mxCell id="69dpRHGbD6YFCud_h_4v-12" style="edgeStyle=orthogonalEdgeStyle;shape=connector;curved=1;rounded=1;sketch=1;hachureGap=4;orthogonalLoop=1;jettySize=auto;html=1;exitX=0.25;exitY=1;exitDx=0;exitDy=0;entryX=1;entryY=0.5;entryDx=0;entryDy=0;labelBackgroundColor=default;fontFamily=Architects Daughter;fontSource=https%3A%2F%2Ffonts.googleapis.com%2Fcss%3Ffamily%3DArchitects%2BDaughter;fontSize=16;fontColor=default;startArrow=none;startFill=0;endArrow=classicThin;endFill=0;startSize=14;endSize=14;sourcePerimeterSpacing=8;targetPerimeterSpacing=8;strokeColor=default;" parent="1" source="vefPi8kiDC_iZ1Ip9O_G-3" target="vefPi8kiDC_iZ1Ip9O_G-4" edge="1">
          <mxGeometry relative="1" as="geometry">
            <mxPoint x="550" y="300" as="sourcePoint" />
          </mxGeometry>
        </mxCell>
        <mxCell id="69dpRHGbD6YFCud_h_4v-13" value="返回更新状态" style="edgeLabel;html=1;align=center;verticalAlign=middle;resizable=0;points=[];fontSize=16;fontFamily=Architects Daughter;fontColor=default;" parent="69dpRHGbD6YFCud_h_4v-12" vertex="1" connectable="0">
          <mxGeometry x="-0.6148" y="-2" relative="1" as="geometry">
            <mxPoint x="-18" y="-4" as="offset" />
          </mxGeometry>
        </mxCell>
        <mxCell id="69dpRHGbD6YFCud_h_4v-15" value="HTML页面" style="rounded=0;whiteSpace=wrap;html=1;fontFamily=Architects Daughter;fontSource=https%3A%2F%2Ffonts.googleapis.com%2Fcss%3Ffamily%3DArchitects%2BDaughter;fontSize=16;fontColor=default;" parent="1" vertex="1">
          <mxGeometry x="280" y="280" width="120" height="60" as="geometry" />
        </mxCell>
        <mxCell id="kcnezQiw22nbMT_aAyGr-6" style="edgeStyle=orthogonalEdgeStyle;shape=connector;curved=1;rounded=1;sketch=1;hachureGap=4;orthogonalLoop=1;jettySize=auto;html=1;exitX=0;exitY=0.5;exitDx=0;exitDy=0;entryX=0.5;entryY=0;entryDx=0;entryDy=0;labelBackgroundColor=default;fontFamily=Architects Daughter;fontSource=https%3A%2F%2Ffonts.googleapis.com%2Fcss%3Ffamily%3DArchitects%2BDaughter;fontSize=16;fontColor=default;startArrow=none;startFill=0;endArrow=classicThin;endFill=0;startSize=14;endSize=14;sourcePerimeterSpacing=8;targetPerimeterSpacing=8;strokeColor=default;" edge="1" parent="1" source="kcnezQiw22nbMT_aAyGr-4" target="vefPi8kiDC_iZ1Ip9O_G-2">
          <mxGeometry relative="1" as="geometry" />
        </mxCell>
        <mxCell id="kcnezQiw22nbMT_aAyGr-7" value="更新前端數據" style="edgeLabel;html=1;align=center;verticalAlign=middle;resizable=0;points=[];fontSize=16;fontFamily=Architects Daughter;fontColor=default;" vertex="1" connectable="0" parent="kcnezQiw22nbMT_aAyGr-6">
          <mxGeometry x="0.2488" y="27" relative="1" as="geometry">
            <mxPoint as="offset" />
          </mxGeometry>
        </mxCell>
        <mxCell id="kcnezQiw22nbMT_aAyGr-4" value="socket" style="rounded=1;whiteSpace=wrap;html=1;sketch=1;hachureGap=4;fontFamily=Architects Daughter;fontSource=https%3A%2F%2Ffonts.googleapis.com%2Fcss%3Ffamily%3DArchitects%2BDaughter;fontSize=20;" vertex="1" parent="1">
          <mxGeometry x="280" y="140" width="120" height="60" as="geometry" />
        </mxCell>
      </root>
    </mxGraphModel>
  </diagram>
</mxfile>
